<svg xmlns="http://www.w3.org/2000/svg" xmlns:xlink="http://www.w3.org/1999/xlink" width="500" zoomAndPan="magnify" viewBox="0 0 375 374.999991" height="500" preserveAspectRatio="xMidYMid meet" version="1.0"><defs><clipPath id="4f402159c4"><path d="M 13.539062 12.414062 L 316 12.414062 L 316 362.476562 L 13.539062 362.476562 Z M 13.539062 12.414062 " clip-rule="nonzero"/></clipPath><clipPath id="9e8d5183f6"><path d="M 110.476562 42.175781 L 361.472656 42.175781 L 361.472656 332.980469 L 110.476562 332.980469 Z M 110.476562 42.175781 " clip-rule="nonzero"/></clipPath></defs><rect x="-37.5" width="450" fill="#ffffff" y="-37.499999" height="449.999989" fill-opacity="1"/><rect x="-37.5" width="450" fill="#ffffff" y="-37.499999" height="449.999989" fill-opacity="1"/><g clip-path="url(#4f402159c4)"><path fill="#253e7c" d="M 208.820312 342.839844 C 115.476562 342.839844 39.804688 273.289062 39.804688 187.488281 C 39.804688 101.691406 115.476562 32.136719 208.820312 32.136719 C 249.480469 32.136719 286.78125 45.335938 315.941406 67.320312 C 284.019531 33.511719 238.785156 12.410156 188.617188 12.410156 C 91.925781 12.410156 13.539062 90.796875 13.539062 187.488281 C 13.539062 284.183594 91.925781 362.566406 188.617188 362.566406 C 238.785156 362.566406 284.019531 341.464844 315.941406 307.65625 C 286.78125 329.640625 249.480469 342.839844 208.820312 342.839844 " fill-opacity="1" fill-rule="nonzero"/></g><g clip-path="url(#9e8d5183f6)"><path fill="#8cd4f4" d="M 199.53125 316.320312 C 276.941406 316.320312 339.695312 258.640625 339.695312 187.488281 C 339.695312 116.335938 276.941406 58.65625 199.53125 58.65625 C 165.816406 58.65625 134.878906 69.601562 110.699219 87.835938 C 137.167969 59.796875 174.683594 42.296875 216.285156 42.296875 C 296.472656 42.296875 361.476562 107.304688 361.476562 187.488281 C 361.476562 267.675781 296.472656 332.679688 216.285156 332.679688 C 174.683594 332.679688 137.167969 315.179688 110.699219 287.144531 C 134.878906 305.375 165.816406 316.320312 199.53125 316.320312 " fill-opacity="1" fill-rule="nonzero"/></g><path fill="#253e7c" d="M 219.914062 119.164062 L 219.914062 249.773438 C 230.414062 245.992188 240.363281 241.042969 249.464844 235.03125 L 249.464844 92.324219 Z M 119.519531 250.195312 C 129.023438 253.542969 138.921875 255.933594 149.066406 257.292969 L 149.066406 155.046875 L 119.519531 173.398438 Z M 169.714844 258.613281 C 179.691406 258.566406 189.609375 257.53125 199.265625 255.558594 L 199.265625 124.90625 L 169.714844 147.335938 L 169.714844 258.613281 " fill-opacity="1" fill-rule="nonzero"/><path fill="#8cd4f4" d="M 322.90625 172.972656 L 277.953125 193.78125 L 289.296875 202.914062 C 280.269531 216.65625 267.839844 228.09375 253.332031 237.933594 C 195.777344 276.972656 108.371094 272.335938 56.136719 212.828125 C 67.910156 230.195312 82.597656 244.832031 99.796875 256.335938 C 116.402344 267.441406 134.628906 275.164062 153.96875 279.292969 C 173.308594 283.421875 192.796875 283.746094 211.890625 280.257812 C 231.664062 276.644531 250.132812 269.085938 266.792969 257.789062 C 282.828125 246.910156 296.265625 233.191406 306.765625 216.980469 L 317.753906 225.832031 L 322.90625 172.972656 " fill-opacity="1" fill-rule="nonzero"/></svg>